# xmcd
#
# Track frame offsets:
# 150
# 14656
# 28237
# 43006
# 57956
# 73458
# 87230
# 101762
# 112877
# 126327
# 144000
# 161345
# 177638
# 196948
# 212199
# 229564
#
# Disc length: 3355 seconds
#
#
# Revision: 0
# Processed by: cddbd v1.5.2PL0 Copyright (c) Steve Scherf et al.
# Submitted via: FreeRIP 2.951 
#
DISCID=e60d1910
DTITLE=Pat Hannah - Moods and Memroies
DYEAR=1900
DGENRE=Country
TTITLE0=Galway Bay
TTITLE1=You're My Best Friend
TTITLE2=Tennessee Waltz
TTITLE3=The Rose
TTITLE4=Sweet Dreams
TTITLE5=Would Ypou Lay With Me
TTITLE6=I Swaer
TTITLE7=If I Could See the World
TTITLE8=The Way Old Friends Do
TTITLE9=Scarlet Ribbons
TTITLE10=In the Garden
TTITLE11=Unchained Melody
TTITLE12=Danny Boy
TTITLE13=Shak Me I Rattle
TTITLE14=Lace Covered Windows
TTITLE15=Whispering Hope
EXTD=
EXTT0=
EXTT1=
EXTT2=
EXTT3=
EXTT4=
EXTT5=
EXTT6=
EXTT7=
EXTT8=
EXTT9=
EXTT10=
EXTT11=
EXTT12=
EXTT13=
EXTT14=
EXTT15=
PLAYORDER=
